<?xml version="1.0" standalone="no"?>
<!DOCTYPE svg PUBLIC "-//W3C//DTD SVG 20010904//EN"
 "http://www.w3.org/TR/2001/REC-SVG-20010904/DTD/svg10.dtd">
<svg version="1.0" xmlns="http://www.w3.org/2000/svg"
 width="360.000000pt" height="360.000000pt" viewBox="0 0 360.000000 360.000000"
 preserveAspectRatio="xMidYMid meet">
<metadata>
Created by potrace 1.14, written by Peter Selinger 2001-2017
</metadata>
<g transform="translate(0.000000,360.000000) scale(0.100000,-0.100000)"
fill="#000000" stroke="none">
<path d="M0 1800 l0 -1800 399 0 400 0 4 28 4 27 2 -27 1 -28 1110 0 1111 0
60 30 c127 64 279 189 279 228 0 16 -11 15 -48 -4 -38 -19 -102 -30 -102 -18
0 5 13 19 29 32 17 13 44 45 61 73 18 27 36 49 41 49 5 0 56 32 115 70 58 39
110 70 115 70 5 0 9 55 9 123 l0 122 -50 -54 c-28 -30 -53 -52 -56 -48 -3 3
-2 12 2 19 14 21 10 52 -8 66 -24 18 -63 -9 -78 -52 -5 -17 -46 -67 -91 -111
-44 -44 -89 -95 -101 -113 -11 -18 -22 -31 -25 -28 -3 2 13 31 34 63 42 63 76
133 70 140 -6 5 -39 -41 -62 -87 -10 -19 -28 -48 -41 -63 -13 -16 -24 -40 -24
-54 0 -40 -12 -19 -16 26 -2 22 1 43 6 46 5 3 24 36 41 73 38 82 139 237 207
317 28 33 83 85 122 115 l70 55 0 68 0 69 -42 -33 c-24 -18 -49 -37 -55 -42
-21 -15 -15 11 6 32 11 11 16 22 13 26 -4 4 -2 5 3 3 17 -5 75 49 75 68 0 14
-8 10 -30 -16 l-31 -35 31 51 30 51 0 1137 0 1136 -480 0 c-427 -1 -513 -5
-467 -23 8 -4 8 -6 -3 -6 -8 -1 13 -29 50 -66 35 -36 59 -65 53 -65 -6 0 -16
7 -23 15 -7 8 -26 19 -43 23 -17 4 -33 14 -35 22 -4 12 -2 13 9 3 7 -7 18 -13
23 -13 6 0 -4 10 -22 22 -28 17 -35 19 -42 7 -5 -7 -12 -10 -16 -6 -4 4 -13
-2 -21 -13 -12 -17 -26 -20 -87 -20 -189 0 -526 -94 -756 -210 l-45 -22 25 27
c48 54 95 95 126 110 17 8 49 32 70 52 53 51 80 72 70 54 -6 -8 0 -7 18 4 25
17 38 34 14 19 -7 -4 -8 -3 -4 4 4 6 13 9 21 6 7 -3 18 4 25 16 6 11 15 18 21
15 5 -4 23 5 40 19 l31 26 -1071 0 -1071 0 0 -1800z m2839 1616 l-2 -51 -6 50
c-4 28 -11 57 -16 65 -8 13 -7 13 8 1 12 -10 17 -27 16 -65z m-261 27 c21 -9
65 -36 99 -60 34 -24 67 -43 74 -43 8 0 5 -7 -6 -20 -17 -18 -14 -25 9 -21 5
1 21 -1 37 -4 l27 -6 -44 -41 c-25 -23 -59 -65 -77 -95 -17 -29 -36 -51 -42
-49 -5 2 -9 7 -8 12 1 5 4 26 8 47 7 38 7 38 -21 31 -16 -3 -53 -17 -81 -30
-29 -12 -53 -19 -53 -13 0 5 7 12 15 15 24 9 18 22 -8 17 -18 -4 -29 4 -52 37
-42 61 -74 74 -163 67 -61 -5 -73 -3 -68 9 3 8 0 14 -7 14 -18 0 -37 -21 -37
-40 0 -9 -14 -27 -31 -39 -18 -13 -44 -50 -61 -87 -16 -35 -36 -64 -44 -64 -8
0 -36 -10 -62 -23 -26 -13 -84 -38 -128 -57 l-82 -33 -35 27 c-19 15 -52 30
-72 33 l-38 6 6 66 c3 36 9 74 13 84 9 24 85 61 284 140 223 87 280 105 391
121 133 20 214 19 257 -1z m403 -150 c13 -16 12 -17 -3 -4 -10 7 -18 15 -18
17 0 8 8 3 21 -13z m-1881 -114 c0 -5 -4 -9 -10 -9 -5 0 -10 7 -10 16 0 8 5
12 10 9 6 -3 10 -10 10 -16z m1935 -6 c17 -16 46 -36 63 -45 18 -9 41 -32 52
-50 26 -43 26 -58 -1 -24 -11 14 -31 26 -43 26 -28 0 -96 -64 -94 -88 1 -9 0
-28 0 -42 l-2 -24 -16 22 c-13 18 -19 21 -30 11 -8 -6 -14 -8 -14 -4 0 8 19
80 28 105 2 8 6 23 7 33 1 10 11 31 23 46 18 25 19 31 7 41 -24 20 -51 -6 -78
-77 -28 -72 -38 -65 -12 8 21 58 42 89 61 89 9 0 31 -12 49 -27z m-719 -2 c23
-10 45 -24 48 -30 4 -6 22 -11 39 -12 30 0 31 -1 10 -11 -15 -7 -23 -20 -24
-37 -1 -31 -12 -63 -22 -62 -27 3 -37 -1 -37 -15 0 -12 -6 -15 -24 -10 -12 3
-26 3 -30 -1 -9 -10 -86 -3 -108 8 -10 5 -18 16 -18 25 0 11 -4 12 -19 4 -11
-5 -31 -10 -44 -10 -23 0 -24 -2 -17 -35 10 -45 34 -81 62 -96 13 -7 26 -16
29 -21 3 -5 40 -10 82 -11 42 -1 74 -3 72 -6 -3 -2 -26 -10 -52 -17 -35 -9
-41 -13 -21 -13 15 -1 38 3 51 8 32 12 199 22 212 13 6 -4 16 -18 24 -32 14
-24 13 -25 -6 -7 -31 27 -35 20 -13 -24 12 -22 19 -52 17 -67 -2 -15 -2 -21 0
-14 3 7 9 10 14 6 5 -3 7 -10 3 -15 -3 -6 2 -17 12 -25 17 -14 17 -15 2 -10
-15 4 -18 -1 -18 -32 0 -21 -9 -57 -20 -80 -11 -22 -20 -48 -20 -57 0 -8 -4
-15 -9 -15 -9 0 -26 -48 -23 -62 1 -5 -3 -8 -9 -8 -6 0 -9 -6 -6 -14 3 -8 -1
-17 -9 -20 -8 -3 -14 -10 -14 -17 0 -6 -20 -36 -45 -68 -25 -31 -45 -67 -45
-80 0 -12 -4 -20 -8 -17 -5 3 -21 -10 -37 -29 -27 -35 -50 -39 -38 -7 6 15 5
15 -10 3 -9 -7 -15 -17 -12 -21 5 -9 -43 -60 -57 -60 -5 0 -7 -4 -3 -9 3 -5
-8 -17 -23 -27 -16 -9 -39 -36 -51 -61 -25 -52 -26 -64 -5 -56 12 4 15 2 12
-8 -3 -8 -12 -13 -22 -11 -25 5 -19 -17 10 -30 25 -12 25 -12 4 -23 -30 -16
-78 -7 -85 16 -9 29 -28 23 -21 -6 7 -27 -11 -36 -20 -10 -7 18 -35 20 -51 4
-25 -25 -39 0 -57 96 -10 54 -27 124 -37 157 l-18 59 24 21 c14 12 22 25 19
30 -3 5 2 20 11 34 22 34 11 43 -27 21 -22 -13 -34 -15 -43 -7 -7 6 -71 13
-142 15 -105 4 -133 8 -153 24 -55 40 -180 95 -166 72 5 -7 -4 -11 -26 -12
-18 0 -27 -3 -20 -6 24 -10 13 -30 -14 -25 -24 4 -25 3 -15 -17 12 -22 12 -22
-25 -6 -46 19 -44 16 -50 51 -7 38 -8 39 -52 25 -35 -12 -43 -11 -78 7 -21 12
-32 21 -23 22 12 0 7 10 -17 36 -41 43 -42 53 -8 85 15 14 23 31 21 41 -3 10
-2 18 2 18 4 0 13 12 19 26 7 14 17 22 22 19 19 -12 47 5 65 38 9 18 33 43 52
56 19 12 32 18 28 12 -3 -6 -2 -11 4 -11 6 0 8 -7 5 -15 -4 -8 -11 -15 -16
-15 -6 0 -7 7 -4 16 6 14 4 15 -9 4 -12 -10 -13 -15 -4 -20 7 -5 8 -13 3 -21
-6 -12 -5 -12 9 0 9 7 17 11 17 8 0 -15 -28 -66 -55 -101 l-30 -38 23 -17 c52
-37 77 -60 70 -66 -4 -4 -27 7 -52 24 -47 33 -56 36 -56 23 0 -5 24 -21 53
-37 28 -15 58 -33 66 -39 16 -12 82 -15 74 -3 -2 4 0 7 6 7 6 0 14 -12 17 -26
5 -19 9 -22 15 -13 4 8 6 24 3 36 -5 18 0 25 22 33 42 16 90 -13 106 -65 11
-35 17 -40 44 -41 35 0 114 -35 133 -58 19 -22 101 -22 101 0 0 8 -22 84 -50
168 -27 84 -50 155 -50 158 0 3 18 13 39 22 22 8 52 32 68 53 15 21 31 39 35
41 16 7 18 71 5 135 l-15 68 50 25 c28 14 52 23 55 20 3 -2 -9 -12 -26 -21
-17 -8 -31 -20 -31 -25 0 -11 74 16 150 55 27 14 71 30 98 36 44 9 49 12 44
34 -3 17 4 31 24 49 83 74 94 77 160 47z m-1186 -22 c0 -6 -4 -7 -10 -4 -5 3
-10 11 -10 16 0 6 5 7 10 4 6 -3 10 -11 10 -16z m50 -19 c0 -13 -1 -13 -10 0
-5 8 -10 22 -10 30 0 13 1 13 10 0 5 -8 10 -22 10 -30z m1448 -7 c-2 -20 -9
-29 -26 -31 -12 -2 -22 0 -21 5 3 20 -2 25 -16 13 -8 -6 -19 -9 -25 -5 -18 11
-11 25 13 25 12 0 29 5 37 10 28 18 41 11 38 -17z m-132 -60 c-11 -11 -19 6
-11 24 8 17 8 17 12 0 3 -10 2 -21 -1 -24z m644 -53 c0 -5 -2 -10 -4 -10 -3 0
-8 5 -11 10 -3 6 -1 10 4 10 6 0 11 -4 11 -10z m-2020 -24 c0 -2 -9 -6 -20 -9
-11 -3 -18 -1 -14 4 5 9 34 13 34 5z m1220 -31 c0 -8 -4 -15 -9 -15 -13 0 -22
16 -14 24 11 11 23 6 23 -9z m-1644 -32 c-2 -2 -11 0 -20 3 -14 5 -15 9 -5 15
12 7 34 -10 25 -18z m1004 -15 c0 -4 7 -5 15 -2 9 4 15 0 15 -10 0 -10 6 -14
18 -11 9 3 3 -1 -14 -9 -22 -10 -33 -24 -37 -45 -4 -17 -17 -40 -31 -52 -13
-12 -22 -28 -19 -35 8 -21 -21 -17 -51 7 -15 11 -32 19 -40 16 -7 -3 -19 -2
-26 3 -9 6 -7 11 9 19 26 15 27 47 2 54 -15 4 -18 10 -14 28 4 13 8 18 11 11
6 -19 19 -15 74 22 42 29 54 33 69 23 11 -7 19 -15 19 -19z m1271 -39 c-6 -16
-10 -18 -10 -7 -1 22 12 55 16 42 2 -6 -1 -22 -6 -35z m-1862 -29 c35 -27 71
-52 82 -55 18 -6 16 -11 -23 -53 -39 -42 -78 -63 -78 -41 0 5 -8 5 -17 2 -12
-5 -15 -2 -10 10 3 9 2 19 -3 22 -15 9 -12 25 5 25 8 0 15 5 15 11 0 6 -6 9
-13 6 -10 -4 -13 2 -10 21 2 15 0 21 -3 15 -3 -7 -10 -13 -16 -13 -6 0 -5 7 3
16 18 22 20 44 4 44 -8 0 -11 7 -8 20 3 11 6 20 8 20 1 0 30 -22 64 -50z
m1361 40 c-8 -5 -26 -9 -40 -9 l-25 1 25 8 c14 4 32 8 40 9 13 1 13 0 0 -9z
m532 -30 c2 -22 0 -40 -4 -40 -5 0 -8 18 -8 40 0 22 2 40 4 40 2 0 6 -18 8
-40z m368 -1 c0 -11 -4 -17 -10 -14 -5 3 -10 13 -10 21 0 8 5 14 10 14 6 0 10
-9 10 -21z m-250 -26 c0 -7 -7 -13 -15 -13 -10 0 -14 7 -11 23 3 12 5 24 5 27
2 9 21 -25 21 -37z m-226 11 c8 -22 8 -26 -4 -19 -6 3 -7 -1 -4 -9 3 -9 9 -16
13 -16 3 0 6 -11 6 -25 0 -14 0 -25 -1 -25 0 0 -18 18 -38 41 -36 38 -37 41
-17 46 12 3 21 9 21 14 0 15 17 10 24 -7z m-1614 -84 c8 -5 11 -10 5 -10 -5 0
-17 5 -25 10 -8 5 -10 10 -5 10 6 0 17 -5 25 -10z m1816 -60 c14 0 34 5 45 10
19 10 19 10 2 -25 -19 -41 -51 -55 -68 -31 -7 9 -17 16 -22 16 -9 0 -53 78
-53 94 0 4 16 -9 35 -29 22 -22 45 -35 61 -35z m99 37 c-4 -15 -13 -31 -21
-37 -10 -9 -9 -2 3 29 17 45 28 49 18 8z m185 -93 c0 -8 -4 -12 -10 -9 -5 3
-10 10 -10 16 0 5 5 9 10 9 6 0 10 -7 10 -16z m-2380 -34 c-8 -5 -17 -7 -19
-4 -3 3 1 9 9 14 8 5 17 7 19 4 3 -3 -1 -9 -9 -14z m-214 -127 c-10 -10 -19 5
-10 18 6 11 8 11 12 0 2 -7 1 -15 -2 -18z m1864 -78 c0 -19 -4 -35 -8 -35 -4
0 -6 16 -4 35 2 19 6 35 8 35 2 0 4 -16 4 -35z m283 -75 c-7 -28 -13 -25 -13
6 0 14 4 23 9 20 5 -3 7 -15 4 -26z m-1508 -5 c39 -17 21 -18 -25 0 -19 7 -28
14 -20 14 8 0 29 -6 45 -14z m-678 -77 c-3 -7 -5 -2 -5 12 0 14 2 19 5 13 2
-7 2 -19 0 -25z m-707 -8 c0 -5 -7 -10 -16 -10 -8 0 -12 5 -9 10 3 6 10 10 16
10 5 0 9 -4 9 -10z m1757 -12 c-3 -8 -6 -5 -6 6 -1 11 2 17 5 13 3 -3 4 -12 1
-19z m-1067 -28 c0 -22 -4 -40 -10 -40 -5 0 -10 18 -10 40 0 22 5 40 10 40 6
0 10 -18 10 -40z m1014 31 c8 -12 -28 -20 -94 -22 -54 -2 -54 -2 -15 -9 45 -7
44 -8 -70 -44 -84 -26 -142 -42 -390 -106 -223 -58 -317 -85 -350 -102 -16 -8
-43 -18 -60 -21 -16 -4 -47 -11 -67 -16 -21 -5 -38 -5 -38 -1 0 9 10 12 153
55 90 27 106 40 61 51 -16 4 -23 12 -20 20 3 9 -1 14 -11 14 -36 0 4 20 67 33
36 8 135 31 220 50 220 51 376 85 440 96 74 12 168 13 174 2z m96 -11 c0 -5
-4 -10 -10 -10 -5 0 -10 5 -10 10 0 6 5 10 10 10 6 0 10 -4 10 -10z m-1172
-47 c-3 -38 -3 -38 -63 -50 -36 -7 -64 -8 -69 -3 -6 6 -3 12 8 16 11 4 15 13
11 25 -6 19 5 24 47 21 9 -1 22 5 28 13 24 29 41 18 38 -22z m2682 -120 c0 -7
-4 -13 -10 -13 -5 0 -10 12 -10 28 0 21 2 24 10 12 5 -8 10 -21 10 -27z
m-2660 7 c0 -5 -12 -10 -27 -10 -22 0 -25 2 -13 10 20 13 40 13 40 0z m125
-10 c3 -5 -1 -10 -9 -10 -8 0 -18 5 -21 10 -3 6 1 10 9 10 8 0 18 -4 21 -10z
m-45 -20 c0 -5 -4 -10 -10 -10 -5 0 -10 5 -10 10 0 6 5 10 10 10 6 0 10 -4 10
-10z m-37 -35 c16 -8 27 -10 27 -4 0 6 5 7 10 4 20 -12 10 -27 -15 -21 -19 5
-23 3 -19 -9 5 -11 -1 -15 -24 -15 -37 0 -62 9 -62 22 0 6 15 8 38 4 33 -6 35
-5 20 7 -10 8 -18 23 -18 33 0 14 2 16 9 6 4 -7 20 -20 34 -27z m87 25 c0 -5
-4 -10 -10 -10 -5 0 -10 5 -10 10 0 6 5 10 10 10 6 0 10 -4 10 -10z m1390 -52
c-44 -68 -60 -87 -40 -48 17 33 70 110 75 110 3 0 -13 -28 -35 -62z m450 26
c0 -8 -4 -12 -10 -9 -5 3 -10 10 -10 16 0 5 5 9 10 9 6 0 10 -7 10 -16z
m-2035 -24 c-3 -5 -10 -10 -16 -10 -5 0 -9 5 -9 10 0 6 7 10 16 10 8 0 12 -4
9 -10z m2802 -15 c-1 -14 -5 -25 -10 -25 -4 0 -7 2 -7 5 0 3 0 14 0 25 0 11 4
20 9 20 6 0 9 -11 8 -25z m-2872 -5 c4 -6 -7 -10 -25 -10 -18 0 -29 4 -25 10
3 6 15 10 25 10 10 0 22 -4 25 -10z m1588 -30 c-3 -12 -8 -19 -11 -16 -5 6 5
36 12 36 2 0 2 -9 -1 -20z m-1578 -11 c5 -5 1 -9 -12 -9 -11 0 -27 7 -34 16
-12 15 -11 16 11 9 14 -4 29 -11 35 -16z m183 -28 c-7 -12 -18 -21 -25 -21 -6
0 -2 11 10 24 26 29 34 27 15 -3z m159 -87 c-3 -3 -15 11 -27 30 -33 55 -34
43 0 -24 33 -64 36 -85 18 -96 -7 -5 -9 -2 -6 8 4 8 -4 28 -18 44 -13 16 -23
33 -24 37 0 11 -50 84 -50 73 0 -5 16 -34 35 -66 34 -57 44 -90 26 -90 -6 0
-20 18 -32 40 -13 22 -26 40 -31 40 -4 0 -8 6 -8 14 0 8 -9 22 -21 30 l-21 14
21 19 c12 10 36 20 54 23 30 5 34 2 60 -43 16 -27 26 -51 24 -53z m1763 63 c0
-24 -25 -66 -33 -57 -5 5 24 80 30 80 2 0 3 -10 3 -23z m-2185 -109 c-3 -7 11
-35 30 -62 19 -27 33 -51 30 -54 -11 -11 -89 104 -80 118 9 15 25 12 20 -2z
m215 -188 c0 -3 -5 -12 -10 -20 -9 -12 -20 -5 -64 42 -73 77 -106 121 -111
149 -3 17 21 -2 90 -71 52 -52 95 -97 95 -100z m258 166 l23 -25 -51 -25 c-56
-28 -66 -22 -20 13 25 18 29 25 20 41 -15 27 0 25 28 -4z m1685 -121 c-5 -27
-14 -50 -22 -53 -11 -4 -13 7 -7 59 3 35 12 82 19 104 l12 40 3 -51 c2 -28 -1
-73 -5 -99z m546 23 c-6 -24 -23 -87 -40 -140 -30 -96 -31 -99 -97 -154 -37
-32 -72 -65 -79 -74 -16 -23 -197 -140 -216 -140 -9 0 -29 -12 -46 -26 -19
-16 -38 -24 -47 -20 -11 4 -15 2 -11 -6 3 -8 -5 -14 -19 -14 -27 -2 -54 -21
-54 -38 0 -6 4 -5 9 3 6 9 11 10 15 2 4 -6 2 -12 -3 -12 -6 -1 -14 -2 -19 -3
-17 -2 -112 -69 -112 -78 0 -5 -4 -7 -9 -3 -6 3 -29 -14 -53 -37 -24 -23 -46
-42 -50 -42 -4 -1 -14 -10 -23 -21 -9 -11 -13 -13 -9 -5 6 12 4 12 -12 -1 -10
-9 -38 -19 -60 -23 -33 -5 -50 -1 -85 19 -24 14 -84 45 -134 70 -93 47 -107
59 -152 135 -29 49 -56 181 -43 215 10 26 139 175 151 175 23 0 9 -19 -108
-150 -30 -33 -29 -37 11 -44 46 -9 78 -49 146 -185 58 -116 119 -191 156 -191
8 0 12 -4 9 -10 -3 -5 1 -10 9 -10 16 0 60 59 95 127 33 67 97 106 247 151 69
21 161 60 198 84 24 16 74 71 102 112 23 33 141 138 218 193 31 23 46 42 51
65 7 28 59 118 69 118 2 0 0 -19 -5 -42z m-2129 -4 c39 -36 50 -54 30 -54 -13
0 -90 70 -90 81 0 18 21 8 60 -27z m2135 -104 c-15 -48 -23 -62 -21 -40 5 43
10 62 18 76 4 6 11 31 15 55 7 38 8 40 11 14 1 -16 -9 -64 -23 -105z m-2177
86 c16 -19 43 -37 61 -41 18 -4 57 -32 96 -70 36 -35 77 -71 91 -80 14 -9 23
-19 20 -22 -9 -9 13 -43 28 -43 7 0 24 -8 37 -19 25 -19 89 -33 89 -20 0 4
-19 22 -42 41 -24 18 -60 49 -80 68 -20 19 -49 45 -63 57 -28 25 -33 43 -10
43 8 0 15 -6 15 -14 0 -8 5 -18 12 -22 8 -5 9 -2 5 9 -5 12 -1 17 14 17 14 0
26 -14 42 -48 28 -60 61 -96 81 -89 31 12 62 -28 74 -96 16 -85 15 -95 -3 -71
-14 19 -14 19 -15 -2 0 -12 7 -27 15 -34 16 -13 18 -59 5 -100 -7 -22 -8 -20
-10 15 -2 38 -3 37 -21 -30 l-19 -70 6 75 c3 41 7 83 10 93 3 9 1 17 -4 17 -4
0 -13 -17 -19 -37 -9 -35 -10 -33 -5 19 6 68 -9 110 -48 138 -42 30 -46 24
-11 -15 37 -42 45 -72 38 -128 -4 -31 -14 -48 -38 -68 l-32 -26 -28 56 c-31
61 -33 64 -21 58 4 -3 8 17 9 45 0 29 8 56 17 67 15 16 13 31 -4 31 -12 0 -30
-51 -30 -86 0 -38 -22 -44 -29 -9 -5 29 -48 91 -139 200 -45 55 -79 101 -74
103 15 5 117 -25 117 -35 0 -14 61 -73 76 -73 7 0 -9 23 -36 50 -36 36 -65 55
-102 67 -29 9 -53 23 -53 30 0 16 -22 17 -36 3 -17 -17 -77 49 -63 67 19 22
45 15 77 -21z m-411 -52 c-3 -3 -13 8 -23 25 -10 17 -22 31 -27 31 -4 0 -5 5
-2 11 4 6 17 -5 32 -26 14 -20 23 -39 20 -41z m1860 20 c-3 -3 -12 -4 -19 -1
-8 3 -5 6 6 6 11 1 17 -2 13 -5z m79 -29 c16 -22 18 -39 5 -30 -5 3 -12 1 -16
-5 -11 -18 -23 -10 -17 12 4 17 2 20 -11 15 -20 -8 -35 12 -17 23 19 12 41 6
56 -15z m-122 -22 c-4 -15 -13 -34 -21 -41 -11 -11 -13 -7 -13 27 0 34 3 41
20 41 17 0 19 -4 14 -27z m-1610 -8 c8 -22 56 -20 56 2 0 16 1 16 17 0 10 -10
18 -23 18 -30 2 -25 36 -88 45 -82 6 3 10 3 10 -2 0 -4 42 -51 93 -103 87 -90
110 -123 137 -196 6 -17 22 -37 36 -44 13 -8 23 -18 21 -24 -3 -6 -1 -18 4
-27 7 -14 2 -18 -27 -21 -33 -4 -35 -2 -29 19 3 13 1 23 -5 23 -5 0 -10 6 -10
14 0 8 -4 16 -8 18 -4 2 -30 37 -57 78 -102 154 -190 249 -266 290 -19 10 -48
37 -62 59 l-27 41 24 0 c13 0 26 -7 30 -15z m1936 -25 c0 -11 -4 -20 -10 -20
-5 0 -10 9 -10 20 0 11 5 20 10 20 6 0 10 -9 10 -20z m-14 -36 c24 9 18 -92
-9 -138 -12 -21 -26 -38 -32 -38 -17 3 -52 74 -38 79 7 2 9 12 6 21 -6 15 -5
15 10 3 20 -16 36 -6 19 11 -7 7 -8 16 -2 23 6 7 6 24 0 45 l-10 33 21 -22
c12 -12 27 -20 35 -17z m-2316 5 c0 -6 11 -24 25 -41 14 -16 25 -36 25 -43 0
-8 16 -30 35 -50 20 -19 31 -35 26 -35 -12 0 -101 99 -101 114 0 6 -7 2 -15
-8 -14 -18 -15 -16 -15 27 0 26 5 47 10 47 6 0 10 -5 10 -11z m2085 -79 c-9
-41 -17 -33 -9 9 4 17 9 30 11 27 3 -2 2 -19 -2 -36z m-1171 -19 c4 -5 -3 -7
-13 -4 -11 3 -22 11 -25 19 -4 11 -2 12 14 4 10 -5 21 -14 24 -19z m2220 -42
c-10 -11 -26 -18 -36 -16 -12 4 -34 -16 -75 -67 -31 -39 -65 -77 -75 -84 -10
-7 -18 -19 -18 -26 0 -8 -7 -19 -15 -26 -8 -7 -15 -8 -15 -3 0 21 110 176 110
156 0 -4 13 7 28 24 25 30 102 76 111 67 2 -2 -4 -13 -15 -25z m-3064 -113 c0
-12 -5 -7 -19 24 -11 24 -11 24 3 6 9 -11 16 -24 16 -30z m747 -128 c-3 -8 -6
-5 -6 6 -1 11 2 17 5 13 3 -3 4 -12 1 -19z m2075 -20 c-7 -7 -12 -8 -12 -2 0
14 12 26 19 19 2 -3 -1 -11 -7 -17z m-56 -40 c-14 -24 -26 -38 -26 -31 0 16
41 85 47 79 3 -2 -7 -24 -21 -48z m-1966 21 c0 -6 -4 -7 -10 -4 -5 3 -10 11
-10 16 0 6 5 7 10 4 6 -3 10 -11 10 -16z m-1120 -19 c0 -5 -7 -10 -16 -10 -8
0 -12 5 -9 10 3 6 10 10 16 10 5 0 9 -4 9 -10z m3028 -117 c-35 -75 -44 -91
-33 -53 14 48 48 120 56 120 4 0 -6 -30 -23 -67z m-1686 -20 c16 -38 41 -90
54 -116 34 -69 32 -73 -28 -75 -29 -2 -66 -4 -82 -5 -16 -1 -31 4 -33 11 -3 7
-1 12 4 10 14 -4 53 13 53 23 0 6 -15 9 -32 7 -23 -2 -32 1 -30 10 11 55 12
82 3 82 -6 0 -15 -18 -21 -40 -15 -56 -30 -41 -18 17 5 27 11 57 13 69 2 11 9
30 16 42 12 18 23 24 62 31 4 0 22 -29 39 -66z m268 62 c0 -1 -33 -15 -72 -30
-40 -16 -90 -39 -111 -52 -22 -14 -40 -23 -42 -21 -2 2 19 27 46 56 l49 52 65
-2 c36 -1 65 -2 65 -3z m1289 -92 c-6 -16 -24 -52 -40 -80 -17 -29 -27 -58
-23 -64 4 -7 1 -10 -7 -7 -27 9 -20 38 25 108 48 74 62 87 45 43z m-1239 -17
c0 -3 -4 -8 -10 -11 -5 -3 -10 -1 -10 4 0 6 5 11 10 11 6 0 10 -2 10 -4z m59
-20 c-2 -2 -19 -11 -37 -20 -33 -17 -33 -17 -22 3 7 13 21 21 37 21 14 0 24
-2 22 -4z m11 -35 c0 -5 -15 -16 -32 -25 -18 -8 -27 -16 -19 -16 9 0 11 -8 7
-25 -6 -24 -4 -25 39 -25 33 0 45 -4 45 -15 0 -7 7 -18 16 -23 8 -5 16 -23 16
-40 1 -17 5 -30 11 -29 5 1 13 -10 18 -26 5 -18 4 -25 -3 -21 -6 4 -8 -2 -3
-16 9 -29 -14 -45 -31 -22 -10 14 -11 12 -8 -13 4 -28 4 -29 -7 -7 -14 25 -34
30 -25 5 4 -9 2 -19 -4 -23 -7 -5 -8 -15 -1 -33 7 -18 7 -27 0 -27 -6 0 -9
-20 -7 -47 3 -47 2 -48 -27 -50 -16 -1 -24 0 -17 3 8 4 12 35 12 105 0 61 5
107 12 119 10 15 10 22 0 32 -9 9 -12 6 -12 -15 0 -37 -17 -34 -25 4 -5 21 -3
34 5 39 19 11 2 31 -23 28 -18 -2 -22 2 -20 22 1 14 3 47 5 74 2 42 7 52 32
67 28 17 46 17 46 0z m906 -43 c-47 -86 -97 -134 -200 -193 -102 -58 -289
-178 -327 -209 -14 -12 -23 -28 -21 -36 4 -11 0 -10 -12 3 -10 9 -23 17 -29
18 -7 0 -25 16 -41 35 -26 31 -27 36 -14 52 8 9 19 24 23 32 8 13 7 13 -8 1
-10 -8 -17 -9 -17 -3 0 6 5 14 10 17 6 3 10 13 10 22 0 13 -3 13 -15 3 -13
-11 -14 -10 -9 4 3 9 16 16 27 16 20 0 20 0 1 15 -10 8 -26 15 -35 15 -16 0
-70 50 -54 50 5 0 0 6 -10 14 -21 15 -15 45 10 47 59 4 70 2 69 -13 -1 -12 12
-7 47 19 46 33 52 34 122 32 63 -3 78 0 102 19 39 31 53 28 24 -5 -13 -15 -16
-21 -6 -14 9 8 21 10 25 6 4 -4 -6 -17 -22 -29 -40 -28 -105 -90 -86 -80 8 4
-10 -19 -40 -50 -30 -31 -52 -56 -49 -56 3 0 54 22 115 50 60 27 116 50 126
50 9 0 61 43 116 95 78 74 101 91 106 79 4 -9 1 -24 -6 -33 -6 -9 13 8 43 37
29 28 55 52 56 52 2 0 -13 -28 -31 -62z m-756 -73 c0 -5 -5 -3 -10 5 -5 8 -10
20 -10 25 0 6 5 3 10 -5 5 -8 10 -19 10 -25z m-450 -56 c12 -23 19 -43 17 -46
-3 -2 -8 5 -12 16 -3 12 -13 21 -20 21 -9 0 -12 -6 -9 -15 4 -8 1 -15 -4 -15
-18 0 -24 41 -13 78 4 13 25 -6 41 -39z m-360 -9 c0 -5 -2 -10 -4 -10 -3 0 -8
5 -11 10 -3 6 -1 10 4 10 6 0 11 -4 11 -10z m581 -33 c-13 -12 -20 -15 -15 -7
12 22 28 39 33 34 3 -3 -6 -15 -18 -27z m174 -106 c3 -5 1 -12 -5 -16 -5 -3
-10 1 -10 9 0 18 6 21 15 7z m-915 -27 c106 -11 128 -17 143 -35 21 -26 23
-46 2 -29 -12 10 -18 10 -30 0 -12 -10 -15 -10 -15 3 0 9 -8 21 -18 26 -20 11
-221 35 -229 27 -5 -5 22 -10 110 -21 26 -4 45 -10 42 -14 -2 -5 -16 -6 -30
-3 -16 3 -25 0 -25 -8 0 -10 -5 -9 -17 2 -24 21 -80 30 -104 18 -10 -6 -27
-29 -38 -52 -11 -26 -20 -36 -24 -27 -4 10 -6 9 -6 -3 -1 -10 -6 -18 -12 -18
-14 0 -3 98 12 116 5 7 9 16 8 20 -4 23 5 26 54 19 28 -3 108 -13 177 -21z
m45 -44 c3 -5 1 -10 -4 -10 -6 0 -11 5 -11 10 0 6 2 10 4 10 3 0 8 -4 11 -10z
m-50 -40 c3 -6 -4 -10 -17 -10 -18 0 -20 2 -8 10 19 12 18 12 25 0z m-181 -35
c3 -8 1 -15 -4 -15 -6 0 -10 7 -10 15 0 8 2 15 4 15 2 0 6 -7 10 -15z m989
-58 c-2 -4 -11 -3 -19 4 -12 10 -12 14 -2 20 13 9 30 -10 21 -24z m129 -27
l16 -39 -41 -5 c-23 -3 -125 -7 -227 -10 -151 -4 -198 -8 -255 -26 -38 -11
-108 -31 -155 -44 -47 -13 -109 -35 -139 -50 -64 -31 -68 -31 -50 -9 12 15 12
16 -3 10 -32 -12 -19 2 22 23 51 26 66 25 20 -1 -39 -22 -35 -21 95 27 50 18
81 34 70 34 -13 1 -6 7 20 16 64 24 239 43 390 43 78 0 152 4 166 10 27 10 43
36 33 52 -3 5 1 9 9 9 8 0 21 -18 29 -40z m-712 -109 c-8 -5 -26 -12 -40 -15
l-25 -7 25 15 c14 9 32 15 40 15 13 0 13 -1 0 -8z"/>
<path d="M2705 3254 c-9 -14 -14 -28 -12 -31 3 -3 13 9 22 26 19 38 14 41 -10
5z"/>
<path d="M1823 2743 c-14 -5 -18 -59 -5 -67 4 -2 16 2 27 10 18 14 18 14 -3
14 -23 0 -30 16 -10 22 6 2 9 9 7 15 -2 5 -10 8 -16 6z"/>
<path d="M1870 2730 c-13 -8 -12 -10 3 -10 9 0 17 5 17 10 0 12 -1 12 -20 0z"/>
<path d="M1864 2675 c-18 -13 -18 -14 4 -8 12 3 25 9 28 14 8 14 -10 11 -32
-6z"/>
<path d="M2260 2375 c-116 -32 -235 -72 -290 -99 -25 -12 -53 -21 -62 -18 -10
2 -18 -1 -18 -6 0 -18 13 -21 41 -6 46 23 154 60 302 103 77 22 142 42 145 45
11 11 -34 4 -118 -19z"/>
<path d="M1200 2355 c0 -21 30 -31 40 -14 11 17 3 29 -21 29 -10 0 -19 -7 -19
-15z"/>
<path d="M1950 2310 c-8 -5 -10 -10 -5 -10 6 0 17 5 25 10 8 5 11 10 5 10 -5
0 -17 -5 -25 -10z"/>
<path d="M1905 2290 c-3 -6 1 -7 9 -4 18 7 21 14 7 14 -6 0 -13 -4 -16 -10z"/>
<path d="M2180 2260 c0 -5 7 -10 15 -10 8 0 15 5 15 10 0 6 -7 10 -15 10 -8 0
-15 -4 -15 -10z"/>
<path d="M540 1687 c0 -2 14 -16 32 -33 l32 -29 -25 32 c-20 27 -39 41 -39 30z"/>
<path d="M3089 1423 l-24 -28 28 24 c25 23 32 31 24 31 -2 0 -14 -12 -28 -27z"/>
<path d="M3014 1364 c-32 -29 -33 -32 -8 -15 29 19 62 51 52 51 -3 0 -22 -16
-44 -36z"/>
<path d="M2509 983 c-13 -15 -12 -15 11 -3 34 17 36 20 18 20 -9 0 -22 -7 -29
-17z"/>
<path d="M1442 1205 c0 -16 2 -22 5 -12 2 9 2 23 0 30 -3 6 -5 -1 -5 -18z"/>
<path d="M2670 1309 c0 -5 5 -7 10 -4 6 3 10 8 10 11 0 2 -4 4 -10 4 -5 0 -10
-5 -10 -11z"/>
<path d="M2620 594 c-54 -43 -61 -50 -35 -36 23 13 92 71 85 72 -3 0 -25 -16
-50 -36z"/>
<path d="M2095 607 c-16 -13 -15 -14 13 -9 18 2 32 8 32 13 0 13 -24 11 -45
-4z"/>
<path d="M2466 521 c-3 -5 -38 -21 -77 -37 -44 -18 -78 -39 -91 -56 -27 -39
-6 -36 66 7 87 52 142 95 124 95 -9 0 -19 -4 -22 -9z"/>
<path d="M1398 133 c7 -3 16 -2 19 1 4 3 -2 6 -13 5 -11 0 -14 -3 -6 -6z"/>
<path d="M2143 3577 c-18 -12 -32 -28 -33 -34 0 -7 -9 -18 -20 -25 -11 -7 -20
-18 -20 -24 0 -18 56 -2 200 56 l125 50 -110 -1 c-95 -1 -114 -4 -142 -22z"/>
<path d="M2018 3463 c7 -3 16 -2 19 1 4 3 -2 6 -13 5 -11 0 -14 -3 -6 -6z"/>
</g>
</svg>
